<?xml version="1.0" encoding="utf-8"?>
<!-- Generator: Adobe Illustrator 26.3.1, SVG Export Plug-In . SVG Version: 6.00 Build 0)  -->
<svg version="1.1" id="Layer_1" xmlns="http://www.w3.org/2000/svg" xmlns:xlink="http://www.w3.org/1999/xlink" x="0px" y="0px"
	 viewBox="0 0 113 96" style="enable-background:new 0 0 113 96;" xml:space="preserve">
<g>
	<g>
		<path d="M59.73,36.94L36.42,26.29l-14.99-6.84h-0.01l-3.66-1.69l-1.54,0.44l0.21,1.83l4.47,39.8l35.87,25.79l1.35,0.98l1.27-0.97
			l0.12-3.36l1.53-43.05l0.05-1.66L59.73,36.94z M56.87,82.5l-33.51-24.1L19.19,21.3l39.22,17.9L56.87,82.5z"/>
	</g>
	<g>
		<g>
			<g>
				<path d="M27.92,29.36c-0.12-0.06-0.24-0.11-0.35-0.15c-0.11-0.04-0.22-0.07-0.32-0.09c-0.1-0.02-0.2-0.03-0.3-0.04
					c-0.09,0-0.19,0-0.27,0.01c-0.08,0.02-0.16,0.04-0.24,0.07c-0.07,0.03-0.14,0.07-0.21,0.11c-0.06,0.05-0.12,0.1-0.17,0.16
					c-0.05,0.06-0.1,0.13-0.14,0.21c-0.04,0.08-0.08,0.16-0.11,0.24c-0.03,0.08-0.06,0.17-0.08,0.26c-0.02,0.09-0.04,0.18-0.05,0.28
					c-0.01,0.1-0.02,0.2-0.02,0.3c0,0.11,0,0.22,0.01,0.36c0,0.13,0.01,0.28,0.02,0.44c0.01,0.16,0.02,0.33,0.03,0.52
					c0.01,0.19,0.03,0.39,0.05,0.6l0.3,3.45c0.03,0.29,0.05,0.56,0.08,0.81c0.03,0.25,0.06,0.49,0.1,0.71
					c0.03,0.22,0.07,0.43,0.11,0.62c0.04,0.19,0.08,0.36,0.13,0.52c0.04,0.16,0.1,0.31,0.16,0.46c0.06,0.15,0.13,0.3,0.2,0.45
					c0.07,0.15,0.16,0.29,0.25,0.43c0.09,0.14,0.19,0.28,0.3,0.41c0.11,0.13,0.22,0.26,0.34,0.39c0.12,0.12,0.24,0.24,0.37,0.36
					c0.13,0.11,0.27,0.22,0.41,0.32c0.14,0.1,0.29,0.2,0.45,0.29c0.15,0.09,0.29,0.16,0.43,0.21c0.14,0.06,0.27,0.1,0.39,0.12
					c0.12,0.03,0.24,0.04,0.35,0.03c0.11,0,0.22-0.02,0.31-0.06c0.1-0.03,0.19-0.08,0.27-0.13c0.08-0.05,0.15-0.12,0.21-0.19
					c0.06-0.07,0.11-0.15,0.15-0.24c0.04-0.09,0.07-0.19,0.09-0.3c0.02-0.11,0.04-0.24,0.05-0.4c0.01-0.16,0.02-0.34,0.02-0.55
					c0-0.21,0-0.44-0.01-0.7c-0.01-0.26-0.03-0.54-0.05-0.85l-0.03-0.47l-2.21-1.2l0.12,1.48c0.01,0.16,0.02,0.31,0.03,0.44
					c0.01,0.13,0.01,0.24,0.01,0.34c0,0.1,0,0.18,0,0.25c0,0.07-0.01,0.12-0.02,0.16c-0.01,0.04-0.02,0.06-0.04,0.09
					c-0.02,0.02-0.04,0.04-0.06,0.04c-0.02,0.01-0.05,0.01-0.08,0c-0.03-0.01-0.07-0.02-0.11-0.04c-0.04-0.02-0.08-0.05-0.12-0.08
					c-0.04-0.03-0.07-0.06-0.1-0.1c-0.03-0.04-0.05-0.08-0.08-0.12s-0.04-0.09-0.05-0.14c-0.02-0.05-0.03-0.11-0.05-0.18
					c-0.01-0.07-0.03-0.16-0.04-0.25c-0.01-0.1-0.03-0.2-0.04-0.32c-0.01-0.12-0.02-0.25-0.04-0.39l-0.45-5.54
					c-0.01-0.15-0.02-0.29-0.03-0.42c-0.01-0.13-0.01-0.24-0.01-0.34c0-0.1,0-0.18,0-0.25c0-0.07,0.01-0.12,0.02-0.17
					c0.01-0.04,0.02-0.08,0.04-0.1c0.02-0.03,0.04-0.04,0.07-0.05c0.03-0.01,0.06-0.01,0.09,0c0.04,0.01,0.08,0.02,0.12,0.05
					c0.04,0.02,0.08,0.04,0.11,0.07c0.03,0.03,0.07,0.06,0.09,0.09c0.03,0.03,0.05,0.07,0.07,0.11c0.02,0.04,0.04,0.08,0.05,0.13
					c0.01,0.05,0.03,0.1,0.04,0.18c0.01,0.07,0.03,0.16,0.04,0.26c0.01,0.1,0.03,0.21,0.04,0.34c0.01,0.13,0.03,0.27,0.04,0.42
					l0.16,2.11l2.23,1.18l-0.08-1.16c-0.02-0.29-0.04-0.56-0.07-0.81c-0.03-0.25-0.06-0.49-0.09-0.72
					c-0.03-0.22-0.07-0.43-0.11-0.62c-0.04-0.19-0.08-0.36-0.12-0.52c-0.04-0.16-0.1-0.31-0.16-0.46c-0.06-0.15-0.13-0.31-0.21-0.46
					c-0.08-0.15-0.17-0.3-0.27-0.45c-0.1-0.15-0.2-0.3-0.32-0.45c-0.12-0.15-0.24-0.29-0.36-0.42c-0.13-0.13-0.26-0.25-0.4-0.37
					c-0.14-0.11-0.29-0.22-0.44-0.32C28.24,29.53,28.09,29.44,27.92,29.36L27.92,29.36z"/>
			</g>
			<g>
				<path d="M37.36,42.37c-0.01-0.26-0.03-0.55-0.04-0.86l-0.1-2.12c-0.01-0.33-0.03-0.63-0.04-0.9c-0.01-0.29-0.04-0.54-0.05-0.77
					c-0.01-0.22-0.04-0.43-0.05-0.63c-0.01-0.18-0.04-0.34-0.05-0.48c-0.01-0.13-0.04-0.27-0.08-0.41c-0.03-0.14-0.07-0.29-0.1-0.42
					c-0.04-0.14-0.09-0.29-0.14-0.43c-0.05-0.14-0.12-0.29-0.18-0.43c-0.07-0.13-0.14-0.27-0.22-0.41
					c-0.07-0.14-0.16-0.27-0.24-0.39c-0.09-0.13-0.17-0.25-0.27-0.37c-0.09-0.12-0.2-0.24-0.3-0.34c-0.09-0.1-0.2-0.21-0.31-0.3
					c-0.1-0.09-0.21-0.18-0.33-0.26c-0.12-0.09-0.24-0.17-0.35-0.24c-0.12-0.08-0.24-0.14-0.37-0.21c-0.13-0.05-0.25-0.12-0.37-0.16
					c-0.13-0.04-0.24-0.08-0.35-0.1c-0.1-0.03-0.22-0.04-0.31-0.05c-0.1,0-0.21,0-0.3,0.01c-0.09,0.01-0.18,0.03-0.26,0.05
					c-0.08,0.03-0.16,0.07-0.22,0.12c-0.08,0.04-0.14,0.1-0.2,0.17c-0.07,0.05-0.12,0.13-0.16,0.21c-0.05,0.08-0.09,0.17-0.13,0.26
					c-0.04,0.09-0.07,0.2-0.09,0.3c-0.03,0.09-0.05,0.21-0.07,0.33c-0.01,0.1-0.01,0.24-0.01,0.35v0.44c0,0.17,0.01,0.37,0.03,0.59
					c0,0.22,0.01,0.46,0.04,0.72c0.01,0.26,0.03,0.55,0.05,0.85l0.14,2.08c0.01,0.31,0.04,0.59,0.05,0.86
					c0.03,0.26,0.04,0.5,0.07,0.72c0.01,0.22,0.04,0.42,0.05,0.59c0.03,0.17,0.04,0.31,0.07,0.44c0.01,0.13,0.04,0.26,0.07,0.39
					c0.04,0.12,0.07,0.25,0.1,0.38c0.05,0.13,0.09,0.26,0.14,0.41c0.05,0.13,0.1,0.26,0.17,0.39c0.07,0.14,0.13,0.26,0.21,0.39
					c0.07,0.13,0.14,0.25,0.22,0.37c0.08,0.12,0.16,0.24,0.25,0.35c0.08,0.1,0.17,0.21,0.27,0.31c0.09,0.1,0.2,0.21,0.3,0.3
					c0.09,0.1,0.2,0.18,0.31,0.27c0.1,0.09,0.21,0.17,0.33,0.25c0.1,0.08,0.22,0.14,0.34,0.21c0.13,0.08,0.25,0.14,0.37,0.2
					c0.12,0.05,0.24,0.09,0.34,0.13c0.1,0.04,0.21,0.07,0.31,0.08c0.1,0.03,0.2,0.03,0.29,0.03s0.18-0.01,0.26-0.03
					c0.09-0.01,0.16-0.04,0.24-0.08c0.08-0.04,0.14-0.08,0.21-0.13c0.05-0.05,0.12-0.12,0.17-0.18c0.05-0.08,0.09-0.16,0.13-0.24
					c0.05-0.08,0.08-0.17,0.1-0.26c0.04-0.1,0.05-0.21,0.08-0.31c0.01-0.1,0.03-0.22,0.03-0.34v-1.01
					C37.37,42.87,37.37,42.63,37.36,42.37z M35.06,42.95c-0.01,0.07-0.01,0.13-0.03,0.17c0,0.04-0.01,0.07-0.04,0.09
					c-0.01,0.03-0.04,0.04-0.05,0.05c-0.03,0.01-0.05,0.01-0.09,0c-0.03,0-0.07-0.01-0.1-0.04c-0.04-0.03-0.08-0.05-0.1-0.08
					c-0.04-0.03-0.07-0.05-0.09-0.09c-0.03-0.03-0.04-0.07-0.07-0.1c-0.01-0.04-0.04-0.08-0.04-0.13c-0.01-0.04-0.03-0.1-0.04-0.18
					c-0.01-0.08-0.03-0.17-0.04-0.29c-0.01-0.1-0.03-0.24-0.04-0.38c-0.01-0.14-0.03-0.3-0.03-0.47l-0.34-5.73
					c-0.01-0.17-0.03-0.31-0.03-0.44V35c0-0.09,0.01-0.17,0.01-0.24c0.01-0.05,0.03-0.1,0.04-0.13c0.01-0.01,0.03-0.04,0.05-0.05
					c0.01-0.01,0.04-0.03,0.07-0.03h0.07c0.03,0.01,0.07,0.01,0.09,0.04c0.04,0.01,0.07,0.04,0.1,0.07
					c0.03,0.03,0.05,0.05,0.08,0.09c0.03,0.03,0.05,0.07,0.07,0.1c0.03,0.04,0.04,0.08,0.05,0.13c0.01,0.04,0.04,0.1,0.05,0.18
					c0.01,0.07,0.01,0.16,0.03,0.25c0.01,0.1,0.03,0.21,0.04,0.33c0.01,0.13,0.01,0.26,0.03,0.41l0.31,5.66
					c0.01,0.18,0.03,0.34,0.03,0.48c0.01,0.14,0.01,0.26,0.01,0.38V42.95z"/>
			</g>
			<g>
				<path d="M44.16,46.67l-0.1-4.47c0-0.31-0.01-0.59-0.01-0.85c-0.01-0.26-0.03-0.5-0.04-0.71c-0.01-0.21-0.03-0.41-0.04-0.56
					c-0.01-0.17-0.03-0.3-0.05-0.42c-0.01-0.12-0.04-0.24-0.07-0.35c-0.03-0.1-0.07-0.22-0.1-0.34c-0.04-0.12-0.08-0.24-0.13-0.35
					c-0.05-0.12-0.1-0.24-0.17-0.35c-0.07-0.12-0.13-0.22-0.21-0.34c-0.08-0.12-0.16-0.22-0.25-0.33c-0.08-0.1-0.18-0.21-0.27-0.31
					c-0.1-0.1-0.21-0.2-0.33-0.29c-0.12-0.1-0.25-0.2-0.42-0.31c-0.17-0.1-0.35-0.22-0.58-0.35c-0.21-0.12-0.46-0.25-0.72-0.39
					c-0.26-0.14-0.55-0.29-0.86-0.44l-1.91-0.94l0.56,12.49l3.1,1.78c0.16,0.08,0.3,0.16,0.43,0.22c0.13,0.08,0.25,0.13,0.37,0.18
					c0.1,0.07,0.21,0.1,0.3,0.14c0.1,0.04,0.18,0.07,0.26,0.09c0.08,0.03,0.14,0.04,0.21,0.05c0.08,0.01,0.14,0.01,0.2,0.01
					c0.07,0,0.13,0,0.18-0.01c0.05-0.01,0.1-0.03,0.16-0.05c0.05-0.03,0.1-0.05,0.14-0.09c0.04-0.04,0.08-0.08,0.12-0.13
					c0.04-0.05,0.07-0.1,0.09-0.17c0.03-0.07,0.05-0.14,0.07-0.22c0.03-0.08,0.04-0.2,0.05-0.33c0.01-0.13,0.03-0.29,0.03-0.46
					c0.01-0.18,0.01-0.39,0.01-0.63C44.17,47.21,44.17,46.95,44.16,46.67z M41.57,45.99c0,0.12-0.01,0.22-0.03,0.3
					c-0.01,0.08-0.03,0.13-0.05,0.17c-0.01,0.03-0.04,0.05-0.08,0.07c-0.04,0.01-0.09,0.01-0.14,0.01c-0.05-0.01-0.12-0.04-0.2-0.07
					c-0.07-0.03-0.14-0.07-0.24-0.12l-0.3-8.3c0.07,0.04,0.13,0.08,0.2,0.1c0.05,0.04,0.12,0.08,0.16,0.1
					c0.05,0.04,0.09,0.08,0.13,0.1c0.04,0.04,0.07,0.07,0.09,0.09c0.04,0.04,0.05,0.08,0.08,0.1c0.03,0.04,0.04,0.08,0.07,0.12
					c0.01,0.04,0.03,0.08,0.04,0.12c0.01,0.05,0.03,0.09,0.04,0.13c0,0.05,0.01,0.1,0.03,0.18c0,0.07,0.01,0.14,0.01,0.25
					c0.01,0.09,0.01,0.2,0.01,0.33c0.01,0.12,0.01,0.25,0.03,0.41l0.16,4.92c0,0.21,0.01,0.39,0.01,0.55
					C41.58,45.73,41.58,45.88,41.57,45.99z"/>
			</g>
			<g>
				<polygon points="49.68,40.38 44.97,38.05 45.22,50.9 49.89,53.57 49.89,51.05 47.86,49.92 47.83,47.12 49.57,48.06 49.56,45.57 
					47.81,44.65 47.79,42.13 49.68,43.1 49.68,40.38 				"/>
			</g>
			<g>
				<path d="M32.47,57.12l-0.07-0.97c-0.01-0.17-0.03-0.33-0.05-0.48c-0.03-0.16-0.05-0.31-0.08-0.46c-0.03-0.13-0.07-0.27-0.1-0.39
					c-0.04-0.13-0.09-0.25-0.13-0.37c-0.05-0.1-0.12-0.22-0.18-0.33c-0.07-0.12-0.14-0.22-0.22-0.34c-0.09-0.1-0.18-0.22-0.3-0.34
					c-0.1-0.1-0.21-0.22-0.34-0.33c0.1,0.03,0.21,0.05,0.3,0.08c0.08,0.01,0.16,0.03,0.24,0.03c0.07,0,0.13-0.01,0.18-0.03
					c0.04-0.03,0.09-0.05,0.12-0.09c0.04-0.04,0.07-0.09,0.08-0.16c0.03-0.07,0.04-0.16,0.05-0.25c0.01-0.1,0.03-0.21,0.03-0.34
					c0-0.13-0.01-0.26-0.03-0.43c-0.01-0.22-0.04-0.46-0.07-0.67c-0.03-0.21-0.07-0.41-0.1-0.59c-0.04-0.2-0.08-0.37-0.13-0.54
					c-0.05-0.16-0.1-0.31-0.16-0.44c-0.07-0.14-0.13-0.27-0.2-0.41c-0.08-0.12-0.14-0.25-0.22-0.35c-0.07-0.12-0.14-0.22-0.24-0.33
					c-0.08-0.1-0.17-0.2-0.25-0.29c-0.09-0.08-0.2-0.17-0.3-0.26c-0.1-0.09-0.22-0.18-0.35-0.27c-0.13-0.09-0.26-0.2-0.41-0.29
					c-0.16-0.09-0.3-0.2-0.47-0.3l-2.05-1.24l0.92,10.41l2.3,1.56c0.21,0.13,0.39,0.26,0.56,0.37c0.17,0.1,0.33,0.2,0.46,0.27
					c0.13,0.08,0.25,0.13,0.35,0.18c0.1,0.04,0.18,0.08,0.25,0.09c0.07,0.01,0.12,0.01,0.18,0.01c0.05,0,0.1-0.03,0.14-0.04
					c0.05-0.03,0.09-0.07,0.12-0.1c0.04-0.04,0.07-0.09,0.09-0.16s0.05-0.14,0.07-0.24c0.01-0.09,0.03-0.2,0.04-0.31v-0.39
					C32.49,57.46,32.48,57.29,32.47,57.12z M29.47,51.47c-0.01-0.01-0.04-0.03-0.05-0.03l-0.2-2.38c0.05,0.03,0.1,0.07,0.14,0.09
					c0.05,0.04,0.09,0.07,0.12,0.09c0.04,0.03,0.08,0.05,0.1,0.08c0.03,0.01,0.05,0.04,0.07,0.05c0.03,0.03,0.04,0.05,0.05,0.08
					c0.03,0.03,0.04,0.05,0.05,0.08c0.03,0.04,0.04,0.07,0.05,0.1c0.01,0.04,0.04,0.08,0.05,0.12c0.01,0.04,0.03,0.09,0.04,0.14
					c0.01,0.05,0.03,0.1,0.03,0.17l0.04,0.2c0,0.08,0.01,0.16,0.01,0.25c0.01,0.16,0.03,0.3,0.03,0.42
					c0.01,0.13,0.01,0.24,0.01,0.33v0.22c-0.01,0.05-0.03,0.09-0.03,0.12c-0.01,0.03-0.03,0.05-0.05,0.07c-0.03,0-0.05,0.01-0.08,0
					c-0.04,0-0.07-0.01-0.1-0.03c-0.05-0.03-0.09-0.05-0.14-0.08c-0.01-0.01-0.03-0.01-0.04-0.03c-0.01-0.01-0.03-0.03-0.05-0.03
					C29.51,51.5,29.5,51.49,29.47,51.47z M30.39,55.95c-0.01,0.05-0.03,0.1-0.03,0.13c-0.01,0.04-0.03,0.07-0.05,0.08
					c-0.01,0.01-0.04,0.03-0.07,0.01c-0.04,0-0.08,0-0.12-0.03c-0.05-0.01-0.09-0.04-0.16-0.07c-0.05-0.03-0.12-0.07-0.2-0.1
					l-0.22-2.9c0.07,0.05,0.14,0.1,0.2,0.16c0.07,0.05,0.12,0.09,0.17,0.14c0.05,0.04,0.09,0.08,0.13,0.12
					c0.03,0.04,0.05,0.08,0.08,0.12c0.01,0.03,0.04,0.08,0.05,0.13c0.01,0.05,0.04,0.12,0.05,0.2c0.01,0.07,0.03,0.16,0.04,0.25
					c0.01,0.09,0.01,0.2,0.03,0.3l0.08,0.97c0,0.1,0.01,0.2,0.01,0.29V55.95z"/>
			</g>
			<g>
				<path d="M38.19,60.37c0-0.18-0.01-0.39-0.01-0.61c-0.01-0.24-0.03-0.48-0.04-0.76l-0.09-1.86c-0.01-0.27-0.03-0.54-0.04-0.78
					c-0.01-0.24-0.03-0.46-0.04-0.67c-0.01-0.2-0.03-0.38-0.05-0.54c-0.01-0.17-0.03-0.31-0.05-0.43c-0.01-0.12-0.03-0.25-0.07-0.37
					c-0.03-0.13-0.05-0.25-0.09-0.38c-0.04-0.13-0.09-0.26-0.14-0.39c-0.04-0.13-0.1-0.26-0.16-0.39c-0.07-0.13-0.13-0.26-0.21-0.39
					c-0.07-0.13-0.14-0.25-0.22-0.37c-0.08-0.12-0.17-0.24-0.26-0.35c-0.08-0.12-0.17-0.22-0.27-0.33c-0.09-0.1-0.2-0.21-0.3-0.31
					c-0.09-0.09-0.2-0.18-0.3-0.27c-0.12-0.09-0.22-0.17-0.33-0.25c-0.12-0.08-0.24-0.16-0.35-0.24c-0.12-0.07-0.24-0.13-0.35-0.2
					c-0.1-0.05-0.22-0.1-0.33-0.14c-0.1-0.04-0.2-0.07-0.3-0.08c-0.09-0.03-0.18-0.04-0.27-0.04c-0.08,0-0.17,0-0.25,0.01
					c-0.07,0.01-0.14,0.04-0.21,0.07c-0.07,0.03-0.13,0.07-0.18,0.12c-0.05,0.04-0.1,0.1-0.16,0.16c-0.04,0.07-0.09,0.13-0.12,0.21
					c-0.04,0.08-0.07,0.16-0.09,0.25c-0.03,0.08-0.04,0.17-0.05,0.27c-0.01,0.09-0.03,0.2-0.03,0.3V52c0,0.14,0.01,0.31,0.01,0.5
					c0.01,0.2,0.03,0.41,0.04,0.64c0.01,0.22,0.03,0.47,0.04,0.75l0.13,1.82c0.01,0.27,0.04,0.52,0.05,0.76
					c0.01,0.24,0.04,0.44,0.05,0.63c0.03,0.2,0.04,0.37,0.05,0.52c0.03,0.14,0.04,0.29,0.05,0.39c0.01,0.12,0.04,0.24,0.07,0.35
					c0.03,0.1,0.07,0.22,0.1,0.35c0.04,0.12,0.08,0.24,0.13,0.35c0.05,0.13,0.1,0.25,0.16,0.38c0.07,0.12,0.12,0.25,0.18,0.37
					c0.08,0.12,0.14,0.24,0.22,0.35c0.07,0.12,0.14,0.22,0.24,0.33c0.08,0.12,0.17,0.22,0.26,0.33c0.09,0.1,0.18,0.21,0.27,0.3
					c0.09,0.09,0.2,0.18,0.29,0.27c0.1,0.09,0.21,0.18,0.31,0.26s0.22,0.16,0.33,0.24c0.12,0.08,0.24,0.16,0.34,0.21
					c0.12,0.07,0.22,0.12,0.33,0.17c0.1,0.05,0.2,0.08,0.3,0.12c0.09,0.03,0.18,0.05,0.27,0.07c0.08,0.01,0.17,0.01,0.25,0.01
					c0.07-0.01,0.14-0.03,0.21-0.04c0.08-0.03,0.13-0.05,0.2-0.09c0.05-0.04,0.1-0.09,0.16-0.14c0.05-0.05,0.09-0.12,0.13-0.18
					c0.04-0.07,0.08-0.13,0.1-0.21c0.03-0.08,0.04-0.17,0.07-0.26c0.01-0.09,0.03-0.18,0.03-0.29s0.01-0.24,0.01-0.38
					S38.19,60.56,38.19,60.37z M36,59.92c0,0.07-0.01,0.12-0.01,0.14c-0.01,0.04-0.03,0.07-0.04,0.09
					c-0.01,0.01-0.04,0.03-0.05,0.03c-0.03,0.01-0.05,0-0.08,0c-0.04-0.01-0.07-0.04-0.1-0.05c-0.04-0.03-0.07-0.05-0.1-0.08
					c-0.03-0.04-0.05-0.07-0.08-0.09c-0.03-0.04-0.04-0.08-0.07-0.12c-0.01-0.03-0.03-0.07-0.04-0.12
					c-0.01-0.04-0.03-0.09-0.04-0.16c-0.01-0.08-0.01-0.16-0.03-0.25c-0.01-0.1-0.03-0.21-0.03-0.34c-0.01-0.12-0.03-0.26-0.04-0.42
					L35,53.55c-0.01-0.14-0.03-0.27-0.03-0.38v-0.29c0-0.08,0.01-0.14,0.01-0.2c0.01-0.05,0.03-0.08,0.04-0.1
					c0.01-0.01,0.03-0.04,0.04-0.04c0.03-0.01,0.04-0.03,0.07-0.03c0.03,0,0.04,0,0.07,0.01c0.03,0.01,0.05,0.03,0.09,0.04
					c0.03,0.03,0.07,0.05,0.09,0.08l0.08,0.08c0.03,0.04,0.05,0.08,0.07,0.1c0.01,0.04,0.03,0.08,0.04,0.13
					c0.01,0.04,0.03,0.09,0.04,0.16c0.01,0.07,0.03,0.14,0.04,0.22c0.01,0.09,0.03,0.18,0.03,0.29c0.01,0.12,0.01,0.24,0.03,0.35
					l0.29,4.96c0,0.16,0.01,0.29,0.01,0.42c0,0.13,0.01,0.24,0.01,0.33C36.01,59.78,36,59.86,36,59.92z"/>
			</g>
			<g>
				<path d="M43.65,56.06l-2.08-1.26l-0.41,2.78c-0.02-0.13-0.04-0.26-0.07-0.39c-0.02-0.13-0.05-0.27-0.07-0.41
					c-0.03-0.14-0.05-0.28-0.08-0.43c-0.03-0.15-0.06-0.3-0.09-0.45c-0.04-0.2-0.07-0.39-0.1-0.56c-0.03-0.17-0.06-0.33-0.09-0.47
					c-0.03-0.14-0.05-0.27-0.07-0.39c-0.02-0.11-0.04-0.21-0.05-0.3l-2.3-1.4l1.07,5.46l-0.57,5.41l2.23,1.5l0.15-1.58
					c0.02-0.17,0.04-0.34,0.05-0.51c0.02-0.17,0.03-0.34,0.05-0.5c0.01-0.17,0.03-0.33,0.04-0.5c0.01-0.16,0.02-0.33,0.03-0.49
					c0.07,0.42,0.14,0.83,0.2,1.22c0.07,0.39,0.14,0.77,0.21,1.14c0.07,0.36,0.14,0.71,0.21,1.05c0.07,0.33,0.15,0.65,0.22,0.96
					l2.21,1.48l-1.44-6.9L43.65,56.06L43.65,56.06z"/>
			</g>
		</g>
	</g>
	<g>
		<path d="M93.66,20.69L52.34,7.91l-34.59,9.85l-1.54,0.44l0.21,1.83l2.77,1.27l39.22,17.9l1.35,0.61l1.27-0.6L92.1,24.34l2.86-1.37
			l0.26-1.79L93.66,20.69z M59.73,36.93L36.42,26.29l-14.99-6.84l30.88-8.8l37.89,11.7L59.73,36.93z"/>
	</g>
	<g>
		<g>
			<g>
				<path d="M34.83,18.57c-0.14,0.04-0.27,0.09-0.39,0.13c-0.12,0.04-0.23,0.09-0.33,0.14c-0.1,0.05-0.2,0.09-0.28,0.14
					c-0.09,0.05-0.16,0.1-0.23,0.14c-0.07,0.05-0.13,0.1-0.18,0.15c-0.05,0.05-0.09,0.1-0.12,0.15c-0.03,0.05-0.05,0.1-0.07,0.14
					c-0.01,0.05-0.02,0.09-0.01,0.14c0.01,0.05,0.02,0.09,0.04,0.14c0.02,0.04,0.05,0.09,0.08,0.13c0.03,0.04,0.07,0.08,0.12,0.12
					c0.05,0.04,0.1,0.07,0.17,0.11c0.06,0.03,0.14,0.07,0.22,0.12c0.08,0.04,0.18,0.09,0.28,0.14c0.11,0.05,0.22,0.1,0.35,0.16
					c0.13,0.06,0.27,0.12,0.42,0.18l2.49,1.04c0.21,0.09,0.42,0.17,0.62,0.24c0.2,0.07,0.39,0.14,0.57,0.2
					c0.18,0.06,0.36,0.11,0.52,0.16c0.17,0.05,0.32,0.08,0.47,0.12c0.15,0.03,0.3,0.06,0.46,0.08c0.16,0.02,0.32,0.03,0.49,0.04
					c0.17,0.01,0.34,0.01,0.52,0c0.18,0,0.36-0.02,0.55-0.03c0.18-0.02,0.37-0.04,0.56-0.07c0.19-0.03,0.37-0.06,0.56-0.1
					c0.19-0.04,0.37-0.09,0.56-0.14c0.19-0.05,0.37-0.11,0.56-0.17c0.18-0.06,0.34-0.12,0.49-0.19c0.15-0.06,0.28-0.13,0.39-0.19
					c0.11-0.07,0.21-0.13,0.29-0.2c0.08-0.07,0.14-0.14,0.19-0.21c0.05-0.07,0.08-0.14,0.1-0.2c0.02-0.06,0.03-0.13,0.02-0.19
					c-0.01-0.06-0.03-0.12-0.07-0.17c-0.04-0.05-0.08-0.11-0.15-0.15c-0.06-0.05-0.14-0.1-0.25-0.16c-0.1-0.06-0.23-0.12-0.37-0.19
					c-0.14-0.07-0.31-0.14-0.49-0.22c-0.18-0.08-0.39-0.16-0.61-0.25l-0.34-0.13l-2.5,0.82l1.09,0.44c0.12,0.05,0.23,0.09,0.32,0.13
					c0.1,0.04,0.18,0.08,0.25,0.11c0.07,0.03,0.13,0.06,0.17,0.09c0.04,0.03,0.08,0.05,0.09,0.07c0.02,0.02,0.03,0.04,0.03,0.05
					c0,0.02,0,0.03-0.02,0.05c-0.01,0.02-0.04,0.03-0.07,0.05c-0.03,0.02-0.07,0.03-0.11,0.05c-0.05,0.02-0.1,0.03-0.15,0.04
					c-0.05,0.01-0.1,0.02-0.15,0.02c-0.05,0-0.1,0.01-0.14,0c-0.05,0-0.09-0.01-0.14-0.02c-0.05-0.01-0.1-0.02-0.16-0.04
					c-0.06-0.02-0.13-0.04-0.21-0.06c-0.08-0.03-0.16-0.06-0.25-0.09c-0.09-0.03-0.19-0.07-0.3-0.12l-3.97-1.61
					c-0.11-0.04-0.2-0.08-0.28-0.12c-0.08-0.04-0.16-0.07-0.22-0.1c-0.06-0.03-0.11-0.06-0.15-0.08c-0.04-0.02-0.07-0.04-0.08-0.06
					c-0.02-0.02-0.03-0.03-0.03-0.05c0-0.02,0.01-0.03,0.03-0.05c0.02-0.02,0.04-0.03,0.08-0.05c0.04-0.02,0.08-0.03,0.13-0.05
					c0.05-0.01,0.09-0.03,0.14-0.04c0.04-0.01,0.09-0.02,0.13-0.02c0.04,0,0.09-0.01,0.13-0.01s0.08,0,0.12,0.01
					c0.04,0.01,0.09,0.02,0.14,0.03c0.06,0.02,0.12,0.04,0.19,0.06c0.07,0.02,0.15,0.05,0.24,0.09c0.09,0.03,0.19,0.07,0.29,0.11
					l1.46,0.59l2.5-0.81l-0.8-0.31c-0.2-0.08-0.38-0.15-0.56-0.21c-0.18-0.06-0.35-0.12-0.51-0.17c-0.16-0.05-0.31-0.09-0.46-0.13
					c-0.14-0.04-0.28-0.07-0.41-0.09c-0.13-0.02-0.26-0.04-0.4-0.06c-0.14-0.01-0.29-0.02-0.44-0.03c-0.15-0.01-0.31-0.01-0.48,0
					c-0.17,0-0.34,0.01-0.52,0.02c-0.18,0.01-0.36,0.03-0.54,0.06c-0.18,0.02-0.36,0.05-0.54,0.09c-0.18,0.04-0.37,0.08-0.55,0.12
					C35.21,18.46,35.02,18.51,34.83,18.57L34.83,18.57z"/>
			</g>
			<g>
				<path d="M51.63,18.77c-0.03-0.05-0.05-0.09-0.09-0.13c-0.04-0.05-0.08-0.09-0.13-0.13c-0.05-0.05-0.12-0.09-0.18-0.13
					c-0.07-0.04-0.14-0.08-0.22-0.1c-0.08-0.04-0.18-0.09-0.3-0.13c-0.12-0.05-0.25-0.1-0.41-0.16c-0.14-0.07-0.31-0.13-0.5-0.2
					c-0.18-0.07-0.39-0.14-0.6-0.22l-1.48-0.54c-0.21-0.08-0.42-0.14-0.6-0.21c-0.18-0.07-0.35-0.13-0.51-0.18
					c-0.16-0.05-0.3-0.1-0.43-0.14c-0.13-0.04-0.24-0.08-0.34-0.1c-0.09-0.03-0.2-0.05-0.3-0.08c-0.1-0.01-0.21-0.04-0.33-0.05
					c-0.1-0.03-0.22-0.04-0.34-0.05c-0.13-0.01-0.25-0.01-0.38-0.03c-0.13-0.01-0.26-0.01-0.39-0.01c-0.13-0.01-0.26-0.01-0.39,0
					c-0.13,0-0.26,0.01-0.39,0.01c-0.13,0.01-0.26,0.03-0.39,0.04c-0.13,0.03-0.26,0.04-0.39,0.07c-0.12,0.01-0.25,0.04-0.38,0.07
					c-0.12,0.03-0.25,0.05-0.37,0.09c-0.13,0.03-0.25,0.07-0.38,0.1c-0.12,0.04-0.24,0.08-0.35,0.12c-0.1,0.04-0.21,0.08-0.3,0.13
					c-0.1,0.04-0.18,0.08-0.26,0.12c-0.08,0.05-0.14,0.09-0.21,0.14c-0.07,0.04-0.1,0.08-0.16,0.13c-0.04,0.04-0.07,0.09-0.09,0.13
					c-0.03,0.05-0.04,0.09-0.05,0.13c0,0.05,0,0.09,0.01,0.14c0.01,0.04,0.04,0.09,0.07,0.13c0.03,0.04,0.07,0.08,0.12,0.13
					c0.04,0.04,0.09,0.08,0.14,0.12c0.07,0.04,0.13,0.08,0.21,0.12c0.08,0.03,0.17,0.08,0.27,0.12c0.12,0.05,0.25,0.1,0.39,0.17
					c0.14,0.05,0.3,0.12,0.48,0.2c0.17,0.07,0.37,0.14,0.58,0.22l1.46,0.56c0.22,0.09,0.43,0.17,0.63,0.24
					c0.2,0.08,0.37,0.14,0.54,0.21c0.17,0.05,0.31,0.1,0.44,0.16c0.13,0.04,0.25,0.08,0.35,0.1c0.1,0.04,0.21,0.07,0.33,0.09
					c0.1,0.03,0.22,0.05,0.35,0.07c0.12,0.03,0.24,0.04,0.37,0.05c0.13,0.01,0.27,0.03,0.41,0.04c0.14,0.01,0.27,0.01,0.42,0.01
					c0.14,0.01,0.27,0.01,0.42,0c0.13,0,0.27-0.01,0.42-0.03c0.13-0.01,0.27-0.03,0.41-0.04c0.14-0.03,0.27-0.04,0.41-0.07
					c0.14-0.03,0.27-0.05,0.41-0.08c0.13-0.04,0.25-0.07,0.38-0.1c0.13-0.04,0.25-0.08,0.38-0.12c0.12-0.04,0.24-0.09,0.35-0.13
					c0.1-0.05,0.21-0.09,0.3-0.14c0.09-0.04,0.17-0.09,0.24-0.13c0.08-0.05,0.14-0.1,0.2-0.14c0.05-0.05,0.09-0.1,0.13-0.14
					c0.03-0.05,0.05-0.1,0.07-0.14c0.01-0.05,0.03-0.09,0.01-0.14C51.65,18.86,51.64,18.82,51.63,18.77z M48.97,19.24
					c-0.01,0.01-0.03,0.03-0.05,0.04c-0.03,0.03-0.05,0.04-0.09,0.05c-0.04,0.01-0.08,0.01-0.12,0.03
					c-0.04,0.01-0.08,0.01-0.12,0.01c-0.04,0.01-0.08,0.01-0.13,0c-0.04,0-0.08,0-0.12-0.01c-0.04,0-0.09-0.01-0.16-0.04
					c-0.07-0.01-0.13-0.04-0.22-0.07c-0.08-0.03-0.18-0.07-0.29-0.1c-0.1-0.03-0.22-0.08-0.35-0.12l-3.99-1.5
					c-0.12-0.04-0.21-0.08-0.29-0.12c-0.08-0.03-0.16-0.07-0.21-0.09c-0.05-0.03-0.1-0.05-0.13-0.07c-0.03-0.03-0.05-0.04-0.05-0.05
					c-0.01-0.01-0.01-0.03,0-0.04c0-0.01,0.01-0.03,0.03-0.04c0.01-0.01,0.03-0.01,0.05-0.03c0.01-0.01,0.04-0.03,0.08-0.04
					c0.04,0,0.07-0.01,0.1-0.03c0.04,0,0.08-0.01,0.12-0.01h0.1c0.04,0,0.08,0.01,0.12,0.01c0.04,0.01,0.09,0.01,0.14,0.03
					c0.05,0.01,0.1,0.04,0.18,0.05c0.07,0.03,0.14,0.05,0.22,0.08s0.17,0.07,0.27,0.1l3.94,1.46c0.12,0.04,0.24,0.09,0.34,0.13
					c0.1,0.04,0.2,0.08,0.27,0.1c0.08,0.04,0.13,0.07,0.18,0.09c0.05,0.03,0.09,0.04,0.12,0.07c0.01,0.01,0.04,0.03,0.04,0.04
					C48.98,19.21,48.98,19.22,48.97,19.24z"/>
			</g>
			<g>
				<path d="M57.86,16.71c-0.03-0.04-0.05-0.07-0.09-0.09c-0.03-0.03-0.08-0.05-0.12-0.09c-0.05-0.03-0.12-0.05-0.21-0.09
					c-0.09-0.04-0.2-0.09-0.31-0.13c-0.13-0.05-0.27-0.1-0.43-0.16c-0.16-0.07-0.34-0.13-0.54-0.2l-3.01-1.02
					c-0.21-0.07-0.39-0.13-0.56-0.18c-0.17-0.05-0.31-0.1-0.46-0.14c-0.13-0.05-0.26-0.09-0.37-0.12s-0.21-0.05-0.29-0.08
					c-0.08-0.01-0.16-0.03-0.25-0.05c-0.08-0.01-0.17-0.03-0.26-0.04c-0.09-0.01-0.18-0.01-0.27-0.03c-0.09,0-0.2-0.01-0.3-0.01
					h-0.3c-0.12,0-0.22,0-0.33,0.01c-0.1,0.01-0.22,0.01-0.33,0.03c-0.12,0.03-0.24,0.04-0.34,0.05c-0.12,0.03-0.26,0.05-0.41,0.09
					c-0.16,0.04-0.33,0.08-0.52,0.13c-0.18,0.05-0.39,0.1-0.63,0.17c-0.22,0.08-0.47,0.14-0.75,0.24l-1.69,0.51l8.59,3.1l2.81-0.97
					c0.13-0.05,0.26-0.09,0.37-0.13c0.1-0.04,0.21-0.08,0.3-0.12c0.09-0.04,0.17-0.07,0.24-0.1c0.07-0.03,0.13-0.05,0.17-0.08
					c0.05-0.04,0.09-0.07,0.13-0.09c0.04-0.03,0.08-0.05,0.1-0.08c0.03-0.03,0.04-0.05,0.07-0.08c0.01-0.03,0.03-0.05,0.03-0.09
					v-0.08C57.9,16.77,57.89,16.74,57.86,16.71z M54.8,17.09c0,0.01-0.03,0.04-0.05,0.05c-0.04,0.03-0.08,0.05-0.13,0.08
					c-0.07,0.03-0.13,0.05-0.21,0.08l-5.65-1.99c0.07-0.01,0.12-0.03,0.18-0.05c0.05-0.01,0.1-0.03,0.14-0.04
					c0.05,0,0.09-0.01,0.13-0.03c0.04,0,0.08,0,0.12-0.01h0.2c0.04,0.01,0.07,0.01,0.1,0.01c0.03,0.01,0.07,0.01,0.1,0.03
					c0.03,0,0.07,0.01,0.12,0.03c0.04,0.01,0.1,0.03,0.16,0.05c0.07,0.01,0.14,0.04,0.22,0.07c0.08,0.03,0.17,0.07,0.26,0.09
					l3.32,1.16c0.16,0.05,0.29,0.09,0.39,0.14c0.12,0.04,0.21,0.08,0.3,0.1c0.08,0.04,0.14,0.07,0.18,0.09
					c0.05,0.03,0.09,0.05,0.1,0.07C54.82,17.05,54.82,17.07,54.8,17.09z"/>
			</g>
			<g>
				<polygon points="54.48,12.63 51.02,13.69 59.59,16.59 63.17,15.36 61.39,14.78 59.89,15.28 57.98,14.65 59.25,14.23 57.63,13.7 
					56.35,14.12 54.76,13.59 56.12,13.16 54.48,12.63 				"/>
			</g>
			<g>
				<path d="M60.47,26.76c-0.03-0.05-0.07-0.1-0.12-0.14c-0.05-0.05-0.12-0.1-0.2-0.16c-0.08-0.05-0.18-0.1-0.29-0.17
					c-0.12-0.05-0.25-0.12-0.39-0.18c-0.14-0.07-0.3-0.13-0.48-0.2l-0.95-0.38c-0.17-0.07-0.33-0.12-0.5-0.17
					c-0.16-0.05-0.3-0.09-0.46-0.13c-0.14-0.04-0.29-0.08-0.43-0.1c-0.14-0.01-0.27-0.04-0.41-0.05c-0.13-0.01-0.26-0.01-0.41-0.01
					s-0.29,0.01-0.44,0.03c-0.16,0.01-0.31,0.04-0.48,0.07c-0.16,0.03-0.33,0.07-0.51,0.1c0.09-0.07,0.18-0.12,0.25-0.17
					c0.07-0.07,0.13-0.12,0.17-0.17c0.04-0.05,0.07-0.09,0.09-0.14c0.01-0.04,0.01-0.08,0-0.12c-0.03-0.04-0.05-0.08-0.1-0.13
					c-0.04-0.04-0.1-0.09-0.18-0.13c-0.08-0.05-0.17-0.1-0.29-0.16c-0.1-0.05-0.24-0.1-0.38-0.16c-0.22-0.09-0.42-0.16-0.63-0.22
					c-0.2-0.07-0.38-0.13-0.56-0.17c-0.2-0.05-0.37-0.09-0.54-0.12c-0.17-0.04-0.33-0.05-0.48-0.08c-0.16-0.01-0.31-0.01-0.46-0.03
					c-0.16,0-0.3,0-0.44,0.01c-0.14,0-0.27,0.01-0.42,0.03c-0.14,0.01-0.27,0.04-0.41,0.07c-0.13,0.01-0.27,0.05-0.42,0.09
					c-0.16,0.03-0.31,0.08-0.48,0.13c-0.16,0.04-0.34,0.1-0.52,0.16c-0.18,0.07-0.38,0.13-0.58,0.21l-2.6,0.94l10.14,4.21l2.99-1.23
					c0.25-0.1,0.48-0.21,0.69-0.29c0.2-0.09,0.38-0.18,0.52-0.25c0.16-0.08,0.27-0.14,0.38-0.21c0.09-0.07,0.17-0.12,0.22-0.16
					c0.04-0.05,0.08-0.09,0.1-0.14c0.03-0.04,0.04-0.09,0.04-0.13C60.51,26.85,60.49,26.8,60.47,26.76z M52.37,25.46
					c-0.03,0.03-0.05,0.05-0.1,0.07c-0.04,0.03-0.09,0.05-0.16,0.08c-0.01,0-0.03,0.01-0.05,0.01c-0.01,0.01-0.03,0.01-0.05,0.03
					c-0.03,0.01-0.04,0.01-0.07,0.03c-0.03,0.01-0.05,0.03-0.08,0.03l-2.18-0.89c0.07-0.01,0.13-0.04,0.18-0.05
					c0.05-0.03,0.1-0.04,0.16-0.05c0.05-0.01,0.09-0.03,0.13-0.04c0.04-0.01,0.08-0.03,0.1-0.03c0.03,0,0.07-0.01,0.1-0.01h0.1
					c0.04,0,0.08,0,0.12,0.01c0.04,0,0.09,0,0.13,0.01c0.05,0,0.09,0.01,0.14,0.03c0.05,0.01,0.12,0.03,0.17,0.05
					c0.07,0.01,0.13,0.04,0.2,0.07c0.08,0.03,0.14,0.05,0.22,0.08c0.14,0.07,0.27,0.12,0.39,0.17c0.1,0.04,0.21,0.09,0.29,0.13
					c0.08,0.04,0.14,0.07,0.18,0.09c0.05,0.04,0.08,0.07,0.1,0.08c0.01,0.01,0.01,0.04,0.01,0.07
					C52.41,25.42,52.4,25.45,52.37,25.46z M56.8,27.23c-0.01,0.03-0.05,0.05-0.09,0.08c-0.04,0.03-0.1,0.07-0.16,0.09
					c-0.07,0.04-0.14,0.07-0.24,0.1l-2.89-1.16c0.1-0.04,0.2-0.07,0.27-0.09c0.09-0.03,0.17-0.05,0.24-0.07
					c0.08-0.03,0.14-0.04,0.2-0.04c0.05-0.01,0.1-0.01,0.16-0.01c0.04,0,0.09,0,0.16,0.01c0.07,0.01,0.13,0.03,0.21,0.05
					c0.08,0.03,0.17,0.05,0.26,0.08c0.09,0.04,0.2,0.08,0.3,0.12l0.97,0.39c0.1,0.04,0.2,0.08,0.27,0.12
					c0.08,0.04,0.14,0.07,0.2,0.1c0.05,0.03,0.1,0.05,0.13,0.08c0.03,0.03,0.04,0.05,0.04,0.08C56.83,27.18,56.83,27.2,56.8,27.23z"
					/>
			</g>
			<g>
				<path d="M66.42,24.32c-0.01-0.07-0.04-0.12-0.08-0.17c-0.04-0.05-0.08-0.1-0.13-0.16c-0.05-0.05-0.1-0.1-0.18-0.16
					c-0.07-0.05-0.13-0.1-0.22-0.14c-0.08-0.05-0.17-0.09-0.27-0.13c-0.09-0.05-0.21-0.1-0.35-0.16c-0.13-0.05-0.29-0.12-0.47-0.18
					c-0.18-0.07-0.38-0.14-0.6-0.22c-0.21-0.08-0.44-0.17-0.71-0.26l-1.71-0.63c-0.26-0.09-0.5-0.18-0.72-0.26
					c-0.21-0.07-0.42-0.14-0.6-0.21c-0.18-0.05-0.34-0.12-0.48-0.16c-0.14-0.05-0.27-0.09-0.39-0.12c-0.1-0.04-0.22-0.07-0.34-0.09
					c-0.12-0.03-0.25-0.05-0.37-0.08c-0.13-0.01-0.26-0.04-0.39-0.05c-0.13-0.01-0.27-0.03-0.41-0.04c-0.14,0-0.29-0.01-0.43-0.01
					h-0.42c-0.13,0.01-0.27,0.01-0.42,0.03c-0.13,0.01-0.27,0.03-0.41,0.05c-0.14,0.01-0.27,0.04-0.41,0.07
					c-0.13,0.03-0.26,0.05-0.39,0.09c-0.13,0.03-0.26,0.07-0.38,0.1c-0.13,0.03-0.25,0.08-0.38,0.12c-0.13,0.05-0.25,0.09-0.35,0.14
					c-0.12,0.04-0.21,0.09-0.3,0.14c-0.09,0.05-0.17,0.1-0.25,0.14c-0.08,0.05-0.13,0.1-0.18,0.16c-0.07,0.05-0.1,0.1-0.14,0.16
					c-0.03,0.05-0.05,0.1-0.07,0.16c-0.01,0.05-0.03,0.1-0.01,0.17c0,0.05,0.01,0.1,0.04,0.16c0.03,0.05,0.07,0.1,0.1,0.16
					c0.04,0.05,0.09,0.1,0.14,0.14c0.07,0.05,0.13,0.1,0.2,0.14c0.08,0.05,0.16,0.09,0.25,0.14c0.09,0.04,0.21,0.09,0.34,0.14
					c0.13,0.05,0.27,0.12,0.44,0.18c0.17,0.08,0.37,0.16,0.58,0.24c0.21,0.08,0.43,0.17,0.69,0.27l1.71,0.65
					c0.27,0.1,0.51,0.2,0.75,0.29c0.22,0.09,0.44,0.17,0.63,0.24c0.2,0.07,0.37,0.13,0.52,0.18c0.16,0.05,0.3,0.1,0.42,0.13
					c0.12,0.04,0.24,0.08,0.37,0.1c0.13,0.03,0.26,0.05,0.39,0.08c0.13,0.03,0.27,0.05,0.42,0.07c0.14,0.01,0.3,0.04,0.46,0.04
					c0.14,0.01,0.3,0.03,0.44,0.03h0.46c0.14-0.01,0.29-0.03,0.44-0.04c0.14-0.01,0.29-0.03,0.43-0.05
					c0.14-0.03,0.29-0.05,0.43-0.08c0.13-0.03,0.27-0.07,0.41-0.09c0.13-0.04,0.26-0.08,0.38-0.13c0.13-0.04,0.26-0.08,0.38-0.13
					c0.12-0.05,0.24-0.1,0.35-0.16c0.1-0.07,0.2-0.12,0.29-0.17c0.08-0.05,0.16-0.1,0.22-0.17c0.07-0.05,0.12-0.1,0.17-0.16
					c0.04-0.07,0.08-0.12,0.1-0.17c0.03-0.07,0.04-0.12,0.04-0.17C66.44,24.43,66.44,24.38,66.42,24.32z M63.55,24.77
					c-0.01,0.01-0.05,0.03-0.09,0.05c-0.04,0.01-0.08,0.03-0.12,0.04c-0.04,0-0.08,0.01-0.12,0.01h-0.13
					c-0.05,0-0.09-0.01-0.14-0.01c-0.04-0.01-0.1-0.03-0.17-0.05c-0.08-0.01-0.16-0.04-0.26-0.08c-0.09-0.03-0.21-0.07-0.33-0.12
					c-0.13-0.04-0.27-0.09-0.42-0.14l-4.71-1.78c-0.12-0.04-0.24-0.09-0.33-0.13c-0.1-0.04-0.18-0.07-0.25-0.1
					c-0.07-0.03-0.12-0.05-0.16-0.08c-0.04-0.03-0.07-0.04-0.07-0.05c-0.01-0.03-0.03-0.04-0.03-0.05s0.01-0.03,0.03-0.04
					c0-0.01,0.03-0.03,0.04-0.04c0.03-0.01,0.05-0.03,0.08-0.04c0.04-0.01,0.08-0.03,0.12-0.03c0.04-0.01,0.08-0.01,0.12-0.03h0.12
					c0.04,0,0.08,0.01,0.13,0.01c0.04,0.01,0.09,0.03,0.16,0.04c0.05,0.01,0.13,0.04,0.21,0.07c0.08,0.03,0.16,0.05,0.26,0.08
					c0.09,0.04,0.2,0.08,0.31,0.12l4.62,1.73c0.16,0.05,0.3,0.1,0.42,0.16c0.12,0.05,0.22,0.09,0.31,0.13
					c0.09,0.04,0.17,0.07,0.24,0.1c0.05,0.03,0.1,0.05,0.13,0.07c0.03,0.03,0.05,0.04,0.07,0.07c0.01,0.01,0.01,0.03,0.01,0.05
					C63.59,24.73,63.58,24.76,63.55,24.77z"/>
			</g>
			<g>
				<path d="M62.96,18.71l-1.82,0.66l2.17,1.1c-0.12-0.03-0.24-0.06-0.36-0.09c-0.12-0.03-0.25-0.06-0.38-0.09
					c-0.13-0.03-0.26-0.06-0.39-0.1c-0.13-0.03-0.27-0.06-0.41-0.1c-0.18-0.04-0.35-0.09-0.51-0.12c-0.16-0.04-0.3-0.07-0.43-0.1
					c-0.13-0.03-0.24-0.06-0.35-0.09c-0.1-0.03-0.19-0.05-0.27-0.07l-2.17,0.79l5.13,1.24l4.93,2.4l2.17-0.89l-1.51-0.69
					c-0.16-0.07-0.32-0.15-0.47-0.22c-0.16-0.07-0.31-0.14-0.46-0.21c-0.15-0.07-0.3-0.14-0.45-0.2c-0.15-0.07-0.3-0.13-0.44-0.19
					c0.41,0.11,0.82,0.21,1.21,0.31c0.39,0.1,0.78,0.19,1.15,0.28c0.37,0.09,0.73,0.17,1.08,0.25c0.35,0.08,0.68,0.15,1.01,0.22
					l1.97-0.81l-6.84-1.52L62.96,18.71L62.96,18.71z"/>
			</g>
		</g>
	</g>
	<g>
		<path d="M93.66,20.69l-3.47,1.66L59.73,36.93v0.01l-1.27,0.6l-0.05,1.66L56.87,82.5l-0.1,3.13l1.35,0.98l1.27-0.97l29.45-22.39
			l6.13-40.28l0.26-1.79L93.66,20.69z M86.4,61.81L59.5,82.27l1.53-43.05L92.1,24.34L86.4,61.81z"/>
	</g>
	<g>
		<g>
			<g>
				<path d="M69.28,41.08c-0.14,0.07-0.27,0.15-0.4,0.24c-0.13,0.09-0.26,0.18-0.39,0.27c-0.13,0.1-0.25,0.2-0.37,0.31
					c-0.12,0.11-0.24,0.22-0.35,0.34c-0.11,0.12-0.22,0.24-0.32,0.37c-0.1,0.13-0.2,0.25-0.29,0.38c-0.09,0.13-0.18,0.26-0.25,0.4
					c-0.08,0.14-0.15,0.27-0.22,0.41c-0.07,0.14-0.13,0.28-0.19,0.42c-0.06,0.14-0.11,0.27-0.15,0.4c-0.04,0.13-0.08,0.26-0.11,0.39
					c-0.03,0.13-0.06,0.25-0.08,0.38c-0.02,0.12-0.04,0.26-0.06,0.41c-0.02,0.15-0.04,0.31-0.05,0.49
					c-0.02,0.18-0.03,0.37-0.05,0.57c-0.02,0.2-0.03,0.42-0.04,0.65l-0.22,3.65c-0.02,0.3-0.03,0.58-0.04,0.84
					c-0.01,0.26-0.01,0.49,0,0.7c0.01,0.21,0.02,0.4,0.04,0.57c0.02,0.17,0.04,0.31,0.07,0.44c0.03,0.12,0.07,0.23,0.12,0.33
					c0.05,0.09,0.11,0.18,0.18,0.24c0.07,0.07,0.15,0.12,0.25,0.16c0.09,0.04,0.2,0.06,0.31,0.07c0.11,0.01,0.23,0.01,0.36-0.01
					c0.13-0.02,0.27-0.05,0.41-0.1c0.15-0.05,0.3-0.11,0.46-0.19c0.16-0.08,0.33-0.17,0.51-0.28c0.17-0.1,0.34-0.22,0.5-0.34
					c0.16-0.12,0.31-0.25,0.46-0.38c0.15-0.13,0.29-0.28,0.42-0.43c0.13-0.15,0.26-0.31,0.38-0.47c0.12-0.16,0.24-0.33,0.34-0.49
					c0.1-0.16,0.2-0.32,0.28-0.47c0.08-0.16,0.15-0.31,0.22-0.46c0.06-0.15,0.11-0.3,0.16-0.45c0.04-0.15,0.09-0.31,0.12-0.5
					c0.04-0.19,0.08-0.4,0.11-0.62c0.03-0.23,0.07-0.48,0.1-0.75c0.03-0.27,0.06-0.56,0.08-0.87l0.04-0.47l-2.42,1.4l-0.11,1.52
					c-0.01,0.17-0.02,0.32-0.04,0.46c-0.01,0.14-0.03,0.26-0.04,0.37c-0.01,0.11-0.03,0.2-0.05,0.28c-0.02,0.08-0.03,0.15-0.05,0.2
					c-0.02,0.05-0.04,0.1-0.06,0.15c-0.02,0.05-0.05,0.09-0.08,0.13c-0.03,0.04-0.07,0.08-0.1,0.11c-0.04,0.03-0.08,0.06-0.12,0.09
					c-0.05,0.03-0.09,0.05-0.13,0.06c-0.04,0.01-0.07,0.02-0.1,0.01c-0.03,0-0.05-0.02-0.07-0.04c-0.02-0.02-0.03-0.05-0.04-0.09
					c-0.01-0.04-0.02-0.09-0.03-0.15c-0.01-0.06-0.01-0.14-0.01-0.23c0-0.09,0-0.2,0.01-0.31c0.01-0.12,0.01-0.25,0.02-0.4l0.4-5.74
					c0.01-0.16,0.02-0.31,0.04-0.44c0.01-0.13,0.03-0.26,0.04-0.36c0.01-0.11,0.03-0.2,0.05-0.29c0.02-0.08,0.03-0.15,0.05-0.21
					c0.02-0.06,0.04-0.11,0.06-0.16c0.03-0.05,0.06-0.09,0.09-0.14c0.03-0.04,0.07-0.08,0.12-0.12c0.04-0.03,0.09-0.07,0.14-0.09
					c0.05-0.02,0.09-0.04,0.12-0.05c0.04-0.01,0.07-0.01,0.1-0.01c0.03,0,0.05,0.01,0.07,0.03c0.02,0.02,0.03,0.04,0.04,0.08
					c0.01,0.03,0.02,0.08,0.02,0.15c0,0.07,0.01,0.15,0.01,0.24c0,0.1,0,0.21-0.01,0.34c-0.01,0.13-0.02,0.27-0.03,0.43l-0.16,2.17
					l2.44-1.37l0.1-1.17c0.02-0.29,0.04-0.56,0.05-0.8c0.01-0.25,0.02-0.47,0.02-0.68c0-0.21-0.01-0.39-0.02-0.55
					c-0.01-0.16-0.03-0.3-0.06-0.42c-0.02-0.12-0.06-0.23-0.11-0.33c-0.05-0.1-0.1-0.18-0.17-0.26c-0.07-0.08-0.15-0.14-0.24-0.19
					c-0.09-0.05-0.19-0.1-0.3-0.13c-0.11-0.03-0.23-0.05-0.36-0.05c-0.13,0-0.27,0.02-0.42,0.05c-0.15,0.03-0.31,0.08-0.48,0.15
					C69.65,40.89,69.47,40.98,69.28,41.08L69.28,41.08z"/>
			</g>
			<g>
				<path d="M78.06,38.32c-0.01-0.09-0.05-0.18-0.08-0.27c-0.04-0.09-0.08-0.17-0.12-0.25c-0.05-0.08-0.09-0.14-0.16-0.21
					c-0.05-0.07-0.12-0.1-0.18-0.16c-0.07-0.04-0.13-0.08-0.21-0.09c-0.08-0.03-0.16-0.04-0.25-0.05c-0.09,0-0.18,0-0.27,0.01
					c-0.1,0.01-0.2,0.04-0.3,0.07c-0.1,0.03-0.21,0.07-0.33,0.1c-0.1,0.05-0.22,0.1-0.34,0.17c-0.13,0.07-0.25,0.13-0.38,0.21
					c-0.12,0.08-0.24,0.17-0.35,0.25c-0.1,0.09-0.22,0.18-0.33,0.29c-0.12,0.1-0.22,0.21-0.33,0.31c-0.09,0.1-0.2,0.22-0.29,0.34
					c-0.09,0.12-0.18,0.24-0.26,0.37c-0.09,0.12-0.17,0.25-0.25,0.38c-0.07,0.13-0.14,0.27-0.21,0.41
					c-0.07,0.14-0.13,0.29-0.18,0.42c-0.05,0.14-0.1,0.27-0.14,0.42c-0.05,0.14-0.09,0.27-0.12,0.42c-0.04,0.13-0.07,0.27-0.09,0.41
					c-0.01,0.14-0.04,0.3-0.07,0.47c-0.01,0.18-0.04,0.39-0.07,0.61c-0.03,0.22-0.05,0.46-0.08,0.73c-0.01,0.26-0.04,0.55-0.07,0.85
					l-0.18,2.08c-0.03,0.3-0.05,0.59-0.07,0.85c-0.03,0.26-0.04,0.5-0.05,0.71c-0.01,0.21-0.03,0.41-0.03,0.56
					c-0.01,0.17-0.01,0.3-0.01,0.42c0,0.12,0.01,0.22,0.03,0.33c0.01,0.1,0.03,0.2,0.05,0.29c0.03,0.09,0.07,0.18,0.09,0.26
					c0.04,0.08,0.09,0.16,0.13,0.22c0.05,0.07,0.1,0.12,0.17,0.17c0.05,0.05,0.12,0.09,0.18,0.12c0.07,0.03,0.14,0.05,0.22,0.07
					c0.08,0.01,0.17,0.01,0.25,0.01c0.09-0.01,0.18-0.03,0.29-0.05c0.09-0.01,0.18-0.05,0.29-0.09c0.1-0.04,0.21-0.08,0.31-0.13
					c0.12-0.05,0.22-0.12,0.34-0.2c0.12-0.07,0.24-0.14,0.35-0.22c0.12-0.09,0.22-0.17,0.34-0.26c0.1-0.09,0.21-0.18,0.31-0.29
					c0.09-0.09,0.2-0.2,0.29-0.3c0.09-0.12,0.18-0.22,0.27-0.34c0.09-0.1,0.17-0.22,0.25-0.34c0.08-0.12,0.16-0.25,0.22-0.37
					c0.08-0.13,0.14-0.26,0.21-0.39c0.05-0.12,0.12-0.25,0.17-0.38c0.05-0.13,0.09-0.26,0.14-0.39c0.04-0.12,0.08-0.25,0.1-0.38
					c0.04-0.13,0.07-0.25,0.08-0.38c0.03-0.13,0.05-0.27,0.08-0.44c0.03-0.17,0.04-0.35,0.07-0.56c0.03-0.21,0.07-0.44,0.09-0.69
					c0.03-0.25,0.05-0.52,0.08-0.82l0.22-2.01c0.03-0.31,0.05-0.6,0.08-0.85c0.03-0.26,0.05-0.51,0.07-0.72
					c0.01-0.22,0.03-0.41,0.04-0.58c0.01-0.17,0.01-0.31,0.01-0.43c0.01-0.12,0-0.24,0-0.34C78.1,38.51,78.08,38.42,78.06,38.32z
					 M75.9,40.2c0,0.09-0.01,0.18-0.01,0.3c-0.01,0.12-0.03,0.25-0.04,0.39l-0.52,5.49c-0.01,0.18-0.04,0.34-0.05,0.48
					c-0.01,0.14-0.03,0.26-0.05,0.38c-0.01,0.1-0.03,0.21-0.04,0.29c-0.01,0.08-0.03,0.14-0.04,0.2c-0.03,0.05-0.04,0.1-0.07,0.14
					c-0.01,0.05-0.04,0.09-0.07,0.13c-0.03,0.04-0.07,0.07-0.09,0.09c-0.04,0.04-0.07,0.07-0.1,0.08c-0.04,0.03-0.08,0.04-0.1,0.05
					c-0.03,0.01-0.05,0.01-0.08,0c-0.03,0-0.04-0.01-0.05-0.04c-0.01-0.01-0.03-0.04-0.03-0.08c-0.01-0.03-0.01-0.08-0.01-0.14
					v-0.26c0-0.09,0.01-0.21,0.03-0.35c0.01-0.13,0.03-0.29,0.04-0.46l0.52-5.61c0.01-0.16,0.03-0.3,0.04-0.43
					c0.03-0.13,0.04-0.25,0.05-0.34c0.01-0.1,0.04-0.18,0.05-0.26c0.03-0.07,0.04-0.13,0.05-0.17c0.03-0.04,0.04-0.08,0.07-0.1
					c0.03-0.04,0.05-0.07,0.08-0.1c0.01-0.03,0.05-0.05,0.08-0.08c0.03-0.01,0.05-0.04,0.08-0.05c0.04-0.03,0.07-0.04,0.1-0.04h0.07
					c0.03,0.01,0.04,0.03,0.05,0.05c0.01,0.01,0.03,0.04,0.04,0.08c0.01,0.03,0.01,0.08,0.01,0.14V40.2z"/>
			</g>
			<g>
				<path d="M83.89,35.17c0-0.08-0.01-0.16-0.04-0.22c-0.01-0.08-0.04-0.14-0.07-0.21c-0.03-0.07-0.05-0.12-0.09-0.17
					c-0.04-0.07-0.08-0.1-0.13-0.14c-0.05-0.04-0.1-0.07-0.16-0.09c-0.07-0.01-0.13-0.04-0.21-0.04c-0.07,0-0.14,0-0.24,0.01
					c-0.08,0.01-0.18,0.04-0.31,0.08c-0.13,0.05-0.27,0.1-0.44,0.18c-0.18,0.08-0.37,0.17-0.59,0.27c-0.21,0.1-0.46,0.22-0.71,0.37
					l-1.65,0.86L78,47.86l2.64-1.61c0.13-0.08,0.25-0.14,0.35-0.22c0.1-0.07,0.21-0.13,0.3-0.2c0.09-0.07,0.17-0.13,0.25-0.2
					c0.08-0.05,0.16-0.12,0.21-0.17c0.07-0.05,0.13-0.1,0.18-0.17c0.07-0.05,0.12-0.12,0.17-0.18c0.05-0.07,0.1-0.13,0.16-0.2
					c0.05-0.07,0.09-0.13,0.14-0.21c0.05-0.07,0.09-0.14,0.13-0.22c0.04-0.08,0.08-0.16,0.12-0.24c0.04-0.09,0.07-0.17,0.1-0.26
					c0.03-0.09,0.07-0.17,0.09-0.27c0.03-0.09,0.05-0.21,0.08-0.34c0.03-0.13,0.05-0.29,0.09-0.46c0.03-0.17,0.05-0.37,0.08-0.58
					c0.04-0.22,0.07-0.46,0.09-0.71l0.5-4.01c0.04-0.27,0.07-0.54,0.09-0.76c0.03-0.24,0.05-0.44,0.07-0.63
					c0.03-0.18,0.04-0.34,0.04-0.47c0.01-0.14,0.01-0.26,0.01-0.34C83.9,35.34,83.9,35.24,83.89,35.17z M81.78,37.22
					c0,0.07,0,0.13-0.01,0.22c0,0.08-0.01,0.18-0.03,0.29c-0.01,0.12-0.03,0.24-0.04,0.37l-0.52,4.52
					c-0.03,0.18-0.05,0.37-0.07,0.52c-0.03,0.14-0.05,0.29-0.07,0.41c-0.03,0.13-0.05,0.22-0.07,0.31
					c-0.03,0.09-0.05,0.16-0.08,0.21c-0.01,0.05-0.04,0.1-0.08,0.16c-0.04,0.05-0.08,0.1-0.13,0.14c-0.04,0.05-0.1,0.1-0.16,0.14
					c-0.07,0.05-0.13,0.09-0.21,0.14l0.88-7.68c0.05-0.03,0.1-0.05,0.16-0.08c0.05-0.03,0.09-0.04,0.13-0.05
					c0.04-0.01,0.07-0.03,0.1-0.03h0.07c0.03,0.01,0.04,0.03,0.05,0.04c0.01,0.01,0.03,0.03,0.04,0.05
					c0.01,0.01,0.01,0.04,0.03,0.07c0,0.03,0,0.07,0.01,0.09C81.8,37.11,81.8,37.17,81.78,37.22z"/>
			</g>
			<g>
				<polygon points="88.3,31.29 84.98,33.05 83.53,44.51 86.87,42.48 87.18,40.3 85.77,41.13 86.1,38.68 87.3,37.99 87.59,35.84 
					86.39,36.52 86.68,34.33 87.98,33.62 88.3,31.29 				"/>
			</g>
			<g>
				<path d="M70.34,59.92c-0.01-0.16-0.04-0.29-0.07-0.39c-0.04-0.12-0.08-0.21-0.12-0.27c-0.05-0.08-0.1-0.13-0.17-0.17
					c-0.07-0.05-0.12-0.09-0.2-0.1c-0.07-0.03-0.14-0.04-0.22-0.04c-0.08,0-0.17,0.01-0.26,0.04c-0.09,0.03-0.2,0.07-0.31,0.12
					c-0.12,0.05-0.25,0.12-0.38,0.18c-0.14,0.08-0.3,0.16-0.46,0.26c-0.17,0.09-0.34,0.21-0.54,0.33l-2.43,1.57l-0.65,10.85
					l2.69-1.92c0.24-0.17,0.44-0.31,0.64-0.46c0.18-0.14,0.35-0.27,0.51-0.41c0.16-0.12,0.29-0.24,0.39-0.34
					c0.12-0.09,0.21-0.18,0.29-0.27c0.08-0.08,0.14-0.17,0.21-0.25c0.07-0.09,0.13-0.18,0.18-0.27c0.07-0.09,0.12-0.2,0.16-0.3
					c0.05-0.09,0.1-0.2,0.14-0.3c0.04-0.12,0.08-0.22,0.1-0.35c0.04-0.12,0.07-0.25,0.09-0.39c0.03-0.14,0.05-0.29,0.07-0.44
					c0.03-0.16,0.04-0.33,0.05-0.5l0.08-0.97c0.01-0.17,0.03-0.33,0.03-0.47c0-0.14,0-0.27-0.01-0.38
					c-0.01-0.12-0.04-0.21-0.07-0.29c-0.03-0.09-0.05-0.16-0.09-0.21c-0.04-0.05-0.09-0.09-0.16-0.12
					c-0.07-0.03-0.13-0.04-0.22-0.04c-0.08,0-0.17,0.01-0.29,0.05c-0.1,0.03-0.22,0.07-0.35,0.12c0.13-0.12,0.24-0.22,0.34-0.34
					c0.1-0.1,0.2-0.21,0.27-0.31c0.09-0.09,0.16-0.2,0.22-0.29c0.07-0.09,0.12-0.18,0.17-0.27c0.04-0.09,0.08-0.18,0.12-0.29
					c0.04-0.1,0.07-0.22,0.1-0.35c0.03-0.12,0.05-0.25,0.07-0.39c0.03-0.14,0.04-0.29,0.05-0.44c0.03-0.24,0.03-0.46,0.04-0.64
					C70.37,60.25,70.35,60.08,70.34,59.92z M67.89,66.36l-0.07,0.99c-0.01,0.1-0.01,0.2-0.03,0.29c-0.01,0.09-0.03,0.17-0.05,0.25
					c-0.01,0.07-0.03,0.13-0.05,0.2c-0.01,0.05-0.04,0.1-0.07,0.16c-0.03,0.04-0.05,0.08-0.09,0.13c-0.04,0.04-0.09,0.09-0.14,0.14
					c-0.05,0.05-0.1,0.1-0.17,0.16c-0.08,0.05-0.14,0.12-0.22,0.17l0.2-2.96c0.09-0.05,0.17-0.1,0.24-0.14
					c0.08-0.04,0.13-0.07,0.18-0.09c0.05-0.03,0.1-0.04,0.13-0.04c0.04-0.01,0.07,0,0.08,0c0.03,0.01,0.04,0.04,0.05,0.08
					c0.01,0.03,0.03,0.08,0.03,0.14c0.01,0.07,0.01,0.13,0.01,0.22C67.91,66.15,67.91,66.24,67.89,66.36z M68.21,62.08
					c0,0.07,0,0.14-0.01,0.24c-0.01,0.16-0.03,0.3-0.04,0.43c-0.01,0.13-0.03,0.25-0.04,0.35c-0.01,0.1-0.04,0.2-0.05,0.27
					c-0.01,0.07-0.04,0.13-0.05,0.17c-0.01,0.05-0.04,0.09-0.07,0.13c-0.03,0.05-0.07,0.09-0.1,0.13c-0.04,0.04-0.08,0.08-0.13,0.12
					c-0.04,0.05-0.09,0.09-0.16,0.13c-0.01,0-0.03,0.01-0.04,0.03c-0.03,0.01-0.04,0.03-0.05,0.04c-0.03,0.01-0.05,0.03-0.07,0.04
					c-0.03,0.01-0.05,0.04-0.08,0.05l0.18-2.45c0.05-0.04,0.1-0.07,0.16-0.09c0.05-0.04,0.1-0.07,0.14-0.08
					c0.04-0.03,0.08-0.04,0.1-0.05c0.03-0.01,0.05-0.03,0.08-0.04h0.05c0.03,0,0.04,0.01,0.05,0.03c0.01,0.01,0.03,0.03,0.04,0.04
					c0.01,0.03,0.03,0.04,0.04,0.07c0.01,0.03,0.01,0.07,0.03,0.1c0,0.04,0.01,0.09,0.01,0.14V62.08z"/>
			</g>
			<g>
				<path d="M76.29,55.97c0-0.09-0.03-0.18-0.04-0.26c-0.03-0.08-0.05-0.16-0.08-0.22c-0.04-0.08-0.07-0.14-0.12-0.2
					c-0.04-0.07-0.09-0.12-0.14-0.16c-0.05-0.04-0.12-0.08-0.17-0.1c-0.07-0.03-0.14-0.04-0.21-0.05H75.3
					c-0.09,0.01-0.17,0.03-0.26,0.05s-0.2,0.07-0.29,0.1c-0.1,0.04-0.2,0.09-0.31,0.14c-0.1,0.07-0.21,0.13-0.33,0.2
					c-0.12,0.08-0.24,0.16-0.34,0.25c-0.12,0.08-0.24,0.17-0.34,0.26c-0.1,0.09-0.21,0.18-0.31,0.29s-0.2,0.21-0.29,0.31
					c-0.1,0.12-0.2,0.22-0.27,0.34c-0.09,0.12-0.17,0.24-0.25,0.35c-0.09,0.12-0.16,0.24-0.24,0.37c-0.07,0.13-0.13,0.25-0.2,0.38
					c-0.07,0.13-0.12,0.26-0.17,0.39c-0.05,0.13-0.1,0.26-0.14,0.38c-0.04,0.13-0.08,0.25-0.1,0.38c-0.04,0.12-0.05,0.25-0.08,0.37
					c-0.03,0.12-0.04,0.26-0.07,0.42c-0.01,0.16-0.04,0.33-0.05,0.52c-0.03,0.2-0.05,0.41-0.07,0.64c-0.03,0.24-0.05,0.48-0.07,0.75
					l-0.16,1.82c-0.03,0.27-0.04,0.52-0.07,0.75c-0.01,0.22-0.03,0.43-0.04,0.61c-0.01,0.18-0.01,0.35-0.03,0.5v0.35
					c0,0.1,0.01,0.2,0.03,0.27c0.01,0.09,0.03,0.17,0.05,0.25c0.03,0.08,0.05,0.14,0.09,0.21c0.03,0.07,0.08,0.12,0.12,0.17
					c0.05,0.05,0.1,0.09,0.16,0.12c0.05,0.04,0.12,0.07,0.18,0.08c0.07,0.01,0.13,0.03,0.21,0.03c0.08,0,0.16-0.01,0.25-0.04
					c0.08-0.01,0.17-0.04,0.26-0.08c0.09-0.03,0.18-0.07,0.27-0.12c0.09-0.05,0.2-0.1,0.3-0.17c0.1-0.05,0.21-0.13,0.31-0.21
					c0.12-0.08,0.24-0.17,0.34-0.25c0.1-0.09,0.21-0.18,0.31-0.27c0.1-0.09,0.21-0.2,0.3-0.3c0.09-0.09,0.18-0.2,0.27-0.3
					c0.09-0.12,0.18-0.22,0.26-0.33c0.08-0.12,0.16-0.22,0.24-0.34c0.07-0.12,0.14-0.24,0.21-0.35c0.07-0.12,0.13-0.24,0.18-0.35
					c0.07-0.13,0.12-0.25,0.16-0.37c0.05-0.12,0.09-0.24,0.13-0.35c0.04-0.12,0.08-0.24,0.1-0.35c0.04-0.1,0.07-0.22,0.08-0.34
					c0.03-0.1,0.04-0.24,0.07-0.38c0.03-0.16,0.04-0.31,0.07-0.51c0.03-0.18,0.05-0.38,0.08-0.6s0.05-0.47,0.08-0.73l0.18-1.77
					c0.03-0.27,0.05-0.52,0.07-0.75c0.03-0.24,0.04-0.44,0.07-0.63c0.01-0.18,0.03-0.35,0.03-0.5c0.01-0.14,0.01-0.27,0.01-0.37
					C76.3,56.17,76.3,56.06,76.29,55.97z M74.21,57.66c0,0.08-0.01,0.16-0.01,0.26c-0.01,0.1-0.01,0.21-0.03,0.34l-0.47,4.81
					c-0.01,0.16-0.03,0.3-0.04,0.42c-0.01,0.13-0.03,0.24-0.04,0.34c-0.01,0.09-0.03,0.18-0.04,0.26c-0.03,0.07-0.04,0.13-0.05,0.17
					c-0.01,0.05-0.03,0.09-0.05,0.13c-0.01,0.05-0.04,0.09-0.07,0.12c-0.03,0.04-0.05,0.08-0.08,0.1c-0.03,0.03-0.07,0.05-0.1,0.08
					c-0.03,0.03-0.07,0.05-0.09,0.07c-0.03,0-0.05,0.01-0.08,0.01c-0.01,0-0.04-0.01-0.05-0.03c-0.01-0.01-0.03-0.04-0.03-0.07
					c-0.01-0.03-0.01-0.07-0.01-0.13v-0.21c0.01-0.09,0.01-0.2,0.03-0.31s0.01-0.26,0.04-0.41l0.46-4.92
					c0.01-0.13,0.03-0.26,0.04-0.37c0.01-0.12,0.03-0.22,0.04-0.31c0.01-0.08,0.03-0.16,0.05-0.22c0.01-0.07,0.03-0.12,0.05-0.14
					c0.01-0.04,0.03-0.08,0.05-0.12c0.01-0.03,0.04-0.07,0.07-0.09c0.03-0.03,0.05-0.05,0.08-0.08c0.03-0.03,0.05-0.04,0.08-0.07
					c0.03-0.03,0.07-0.04,0.09-0.05h0.07c0.03,0,0.04,0.01,0.05,0.03c0.01,0.01,0.03,0.04,0.04,0.07c0,0.03,0.01,0.07,0.01,0.12
					V57.66z"/>
			</g>
			<g>
				<path d="M81.52,50.92l-1.69,1.09l-0.76,3.17c0-0.1,0-0.2-0.01-0.3c0-0.1-0.01-0.21-0.01-0.32c0-0.11-0.01-0.22-0.01-0.33
					c-0.01-0.11-0.01-0.22-0.02-0.34c-0.01-0.15-0.01-0.3-0.02-0.43c-0.01-0.13-0.01-0.25-0.01-0.37c0-0.11-0.01-0.21-0.01-0.3
					c0-0.09,0-0.17,0-0.24l-2.02,1.3l0.26,4.18l-1.35,6.19l1.96-1.4l0.37-1.75c0.04-0.19,0.08-0.38,0.12-0.57
					c0.04-0.19,0.08-0.37,0.11-0.55c0.04-0.18,0.07-0.36,0.11-0.54c0.03-0.18,0.07-0.35,0.1-0.52c0,0.33,0.01,0.65,0.02,0.95
					c0.01,0.3,0.02,0.58,0.04,0.85c0.01,0.27,0.03,0.52,0.05,0.76c0.02,0.24,0.04,0.46,0.07,0.66l1.79-1.27l-0.35-4.87L81.52,50.92
					L81.52,50.92z"/>
			</g>
		</g>
	</g>
</g>
</svg>
